PathFileType	4	(X/Y/Z)	 control3min.trc
DataRate	CameraRate	NumFrames	NumMarkers	Units	OrigDataRate	OrigDataStartFrame	OrigNumFrames
200	200	10	35	m	200	251	1000
Frame#	Time	C7			LSH			RSH			MAN			RASI			LASI			HIPR			HIPL			RPSI			LPSI			COX			RTHI1			RTHI2			RTHI3			RTHI4			RSHA1			RSHA2			RSHA3			RSHA4			RHEEL			RMET5			RMET1			RTOE			LTHI1			LTHI2			LTHI3			LTHI4			LSHA1			LSHA2			LSHA3			LSHA4			LHEEL			LMET5			LMET1			LTOE			
		X1	Y1	Z1	X2	Y2	Z2	X3	Y3	Z3	X4	Y4	Z4	X5	Y5	Z5	X6	Y6	Z6	X7	Y7	Z7	X8	Y8	Z8	X9	Y9	Z9	X10	Y10	Z10	X11	Y11	Z11	X12	Y12	Z12	X13	Y13	Z13	X14	Y14	Z14	X15	Y15	Z15	X16	Y16	Z16	X17	Y17	Z17	X18	Y18	Z18	X19	Y19	Z19	X20	Y20	Z20	X21	Y21	Z21	X22	Y22	Z22	X23	Y23	Z23	X24	Y24	Z24	X25	Y25	Z25	X26	Y26	Z26	X27	Y27	Z27	X28	Y28	Z28	X29	Y29	Z29	X30	Y30	Z30	X31	Y31	Z31	X32	Y32	Z32	X33	Y33	Z33	X34	Y34	Z34	X35	Y35	Z35	
251	1.2550	-0.000000	0.000000	-0.000000	-0.248470	1.263591	-0.677700	-0.245711	1.266489	-0.339285	-0.192387	1.243538	-0.511566	-0.180246	0.854554	-0.420723	-0.178974	0.866770	-0.622972	-0.231248	0.892751	-0.373477	-0.232701	0.907653	-0.645918	-0.330767	0.890325	-0.448082	-0.323187	0.900993	-0.561499	-0.332706	0.897241	-0.508049	-0.252448	0.642675	-0.340823	-0.227249	0.588578	-0.339687	-0.167555	0.614298	-0.343881	-0.186761	0.672570	-0.345975	-0.288307	0.263319	-0.319528	-0.310154	0.225401	-0.326113	-0.255755	0.198768	-0.331076	-0.237197	0.234881	-0.331392	-0.424734	0.066122	-0.382878	-0.283976	0.027529	-0.300049	-0.241322	0.032376	-0.380024	-0.215586	0.025582	-0.364499	-0.247752	0.666365	-0.690366	-0.223765	0.609466	-0.695052	-0.162583	0.628849	-0.687927	-0.177594	0.687060	-0.682479	-0.314373	0.239610	-0.694838	-0.337884	0.207765	-0.688248	-0.283272	0.176601	-0.688142	-0.265868	0.216096	-0.695991	-0.431304	0.062336	-0.634039	-0.290035	0.025419	-0.726320	-0.244259	0.030001	-0.654129	-0.219941	0.022180	-0.670810	
252	1.2600	-0.000000	0.000000	-0.000000	-0.248733	1.263763	-0.677729	-0.246096	1.266716	-0.339201	-0.192755	1.243902	-0.511528	-0.180034	0.855338	-0.420610	-0.178956	0.867734	-0.622828	-0.231244	0.893546	-0.373411	-0.232823	0.908732	-0.645594	-0.330656	0.890596	-0.448045	-0.323164	0.901394	-0.561357	-0.332645	0.897554	-0.507963	-0.252138	0.642886	-0.340881	-0.226970	0.588771	-0.339845	-0.167264	0.614469	-0.344069	-0.186438	0.672748	-0.346086	-0.288448	0.264065	-0.319834	-0.310336	0.226076	-0.326323	-0.255994	0.199340	-0.330946	-0.237375	0.235429	-0.331349	-0.424511	0.066299	-0.382808	-0.283929	0.027547	-0.300060	-0.241276	0.032340	-0.380021	-0.215562	0.025572	-0.364508	-0.247670	0.666912	-0.690559	-0.223779	0.609954	-0.695106	-0.162585	0.629236	-0.687769	-0.177509	0.687466	-0.682407	-0.315000	0.239681	-0.694826	-0.338432	0.207719	-0.688238	-0.283713	0.176730	-0.688244	-0.266430	0.216290	-0.696062	-0.431435	0.062130	-0.634221	-0.290055	0.025428	-0.726411	-0.244320	0.030001	-0.654146	-0.219985	0.022190	-0.670821	
253	1.2650	-0.000000	0.000000	-0.000000	-0.249030	1.264465	-0.677755	-0.246505	1.267499	-0.339143	-0.193144	1.244837	-0.511495	-0.179677	0.856583	-0.420535	-0.178822	0.869161	-0.622680	-0.231045	0.894807	-0.373415	-0.232824	0.910236	-0.645216	-0.330389	0.891320	-0.447969	-0.322986	0.902247	-0.561230	-0.332438	0.898339	-0.507859	-0.251765	0.643645	-0.340918	-0.226715	0.589468	-0.339970	-0.166961	0.615049	-0.344307	-0.186016	0.673378	-0.346261	-0.288644	0.264861	-0.319945	-0.310550	0.226848	-0.326326	-0.256237	0.200060	-0.330830	-0.237604	0.236142	-0.331307	-0.424358	0.066653	-0.382561	-0.283843	0.027562	-0.300024	-0.241256	0.032313	-0.379999	-0.215560	0.025565	-0.364520	-0.247576	0.667963	-0.690726	-0.223829	0.610932	-0.695149	-0.162609	0.630055	-0.687603	-0.177396	0.688318	-0.682335	-0.315647	0.240027	-0.695041	-0.338975	0.207918	-0.688481	-0.284129	0.177167	-0.688463	-0.266987	0.216816	-0.696246	-0.431560	0.062211	-0.634697	-0.290027	0.025417	-0.726570	-0.244408	0.030012	-0.654205	-0.220052	0.022205	-0.670832	
254	1.2700	-0.000000	0.000000	-0.000000	-0.249367	1.265682	-0.677774	-0.246947	1.268830	-0.339106	-0.193550	1.246326	-0.511468	-0.179184	0.858236	-0.420501	-0.178573	0.871010	-0.622535	-0.230663	0.896438	-0.373457	-0.232724	0.912069	-0.644848	-0.329963	0.892494	-0.447862	-0.322667	0.903557	-0.561115	-0.332093	0.899579	-0.507734	-0.251370	0.644924	-0.340937	-0.226500	0.590676	-0.340041	-0.166677	0.616079	-0.344591	-0.185534	0.674443	-0.346487	-0.288894	0.265687	-0.319871	-0.310794	0.227670	-0.326179	-0.256464	0.200921	-0.330765	-0.237855	0.236999	-0.331275	-0.424247	0.067183	-0.382203	-0.283721	0.027577	-0.299964	-0.241262	0.032296	-0.379970	-0.215572	0.025567	-0.364537	-0.247484	0.669511	-0.690856	-0.223932	0.612387	-0.695178	-0.162668	0.631299	-0.687440	-0.177265	0.689606	-0.682255	-0.316294	0.240657	-0.695451	-0.339502	0.208401	-0.688935	-0.284504	0.177925	-0.688766	-0.267528	0.217655	-0.696517	-0.431658	0.062592	-0.635386	-0.289956	0.025384	-0.726771	-0.244507	0.030032	-0.654299	-0.220133	0.022222	-0.670841	
255	1.2750	-0.000000	0.000000	-0.000000	-0.249744	1.267399	-0.677780	-0.247438	1.270690	-0.339083	-0.193974	1.248342	-0.511445	-0.178574	0.860249	-0.420513	-0.178212	0.873246	-0.622397	-0.230102	0.898387	-0.373514	-0.232533	0.914188	-0.644543	-0.329385	0.894109	-0.447716	-0.322224	0.905313	-0.560995	-0.331598	0.901269	-0.507590	-0.250974	0.646723	-0.340929	-0.226355	0.592361	-0.340078	-0.166431	0.617496	-0.344882	-0.185020	0.675943	-0.346743	-0.289205	0.266493	-0.319699	-0.311064	0.228532	-0.325922	-0.256656	0.201906	-0.330757	-0.238153	0.238021	-0.331273	-0.424142	0.067889	-0.381779	-0.283571	0.027595	-0.299898	-0.241282	0.032288	-0.379938	-0.215591	0.025573	-0.364558	-0.247407	0.671534	-0.690951	-0.224101	0.614301	-0.695194	-0.162775	0.632949	-0.687289	-0.177130	0.691317	-0.682173	-0.316943	0.241573	-0.696004	-0.340016	0.209176	-0.689544	-0.284856	0.178995	-0.689132	-0.268058	0.218822	-0.696857	-0.431706	0.063275	-0.636230	-0.289850	0.025335	-0.726988	-0.244607	0.030065	-0.654425	-0.220224	0.022242	-0.670848	
256	1.2800	-0.000000	0.000000	-0.000000	-0.250161	1.269594	-0.677772	-0.247969	1.273051	-0.339077	-0.194415	1.250847	-0.511430	-0.177862	0.862590	-0.420581	-0.177747	0.875840	-0.622274	-0.229363	0.900639	-0.373565	-0.232244	0.916592	-0.644335	-0.328680	0.896176	-0.447529	-0.321674	0.907504	-0.560856	-0.330994	0.903394	-0.507425	-0.250602	0.648998	-0.340894	-0.226287	0.594493	-0.340081	-0.166245	0.619303	-0.345165	-0.184509	0.677851	-0.347007	-0.289626	0.267349	-0.319442	-0.311376	0.229476	-0.325592	-0.256835	0.203065	-0.330767	-0.238506	0.239224	-0.331306	-0.424017	0.068773	-0.381334	-0.283402	0.027611	-0.299843	-0.241278	0.032283	-0.379882	-0.215615	0.025584	-0.364581	-0.247350	0.674003	-0.691018	-0.224338	0.616652	-0.695202	-0.162933	0.634977	-0.687158	-0.176995	0.693413	-0.682090	-0.317607	0.242784	-0.696643	-0.340528	0.210255	-0.690245	-0.285204	0.180397	-0.689560	-0.268593	0.220315	-0.697256	-0.431682	0.064258	-0.637166	-0.289716	0.025273	-0.727203	-0.244699	0.030107	-0.654581	-0.220317	0.022262	-0.670855	
257	1.2850	-0.000000	0.000000	-0.000000	-0.250625	1.272234	-0.677748	-0.248517	1.275881	-0.339092	-0.194872	1.253798	-0.511426	-0.177067	0.865234	-0.420716	-0.177188	0.878757	-0.622172	-0.228442	0.903193	-0.373602	-0.231842	0.919293	-0.644229	-0.327863	0.898694	-0.447322	-0.321033	0.910120	-0.560697	-0.330294	0.905938	-0.507243	-0.250267	0.651703	-0.340830	-0.226304	0.597030	-0.340046	-0.166130	0.621481	-0.345426	-0.184029	0.680137	-0.347255	-0.290197	0.268362	-0.319111	-0.311780	0.230538	-0.325254	-0.257064	0.204444	-0.330826	-0.238965	0.240697	-0.331316	-0.423863	0.069859	-0.380901	-0.283241	0.027621	-0.299802	-0.241247	0.032279	-0.379808	-0.215642	0.025597	-0.364603	-0.247314	0.676886	-0.691073	-0.224638	0.619402	-0.695216	-0.163144	0.637359	-0.687048	-0.176867	0.695872	-0.682015	-0.318304	0.244303	-0.697312	-0.341055	0.211646	-0.690978	-0.285555	0.182124	-0.690040	-0.269157	0.222136	-0.697705	-0.431564	0.065533	-0.638145	-0.289561	0.025199	-0.727397	-0.244772	0.030163	-0.654761	-0.220407	0.022283	-0.670866	
258	1.2900	-0.000000	0.000000	-0.000000	-0.251150	1.275289	-0.677707	-0.249058	1.279138	-0.339129	-0.195350	1.257153	-0.511430	-0.176210	0.868193	-0.420917	-0.176552	0.881974	-0.622089	-0.227338	0.906074	-0.373638	-0.231286	0.922334	-0.644223	-0.326935	0.901635	-0.447112	-0.320311	0.913142	-0.560520	-0.329508	0.908879	-0.507050	-0.249984	0.654797	-0.340730	-0.226400	0.599946	-0.339975	-0.166086	0.624002	-0.345667	-0.183579	0.682768	-0.347472	-0.290902	0.269582	-0.318891	-0.312304	0.231801	-0.324926	-0.257368	0.206124	-0.330868	-0.239571	0.242488	-0.331301	-0.423628	0.071129	-0.380471	-0.283085	0.027628	-0.299780	-0.241186	0.032269	-0.379717	-0.215668	0.025612	-0.364625	-0.247295	0.680141	-0.691125	-0.224985	0.622515	-0.695245	-0.163389	0.640072	-0.686969	-0.176742	0.698666	-0.681947	-0.319051	0.246124	-0.697979	-0.341610	0.213340	-0.691703	-0.285930	0.184169	-0.690575	-0.269765	0.224274	-0.698204	-0.431341	0.067098	-0.639130	-0.289388	0.025124	-0.727561	-0.244821	0.030233	-0.654966	-0.220489	0.022305	-0.670883	
259	1.2950	-0.000000	0.000000	-0.000000	-0.251733	1.278727	-0.677652	-0.249576	1.282781	-0.339191	-0.195847	1.260865	-0.511447	-0.175310	0.871448	-0.421182	-0.175855	0.885468	-0.622027	-0.226067	0.909312	-0.373689	-0.230587	0.925729	-0.644288	-0.325934	0.904979	-0.446897	-0.319518	0.916547	-0.560327	-0.328664	0.912203	-0.506849	-0.249747	0.658263	-0.340591	-0.226578	0.603205	-0.339860	-0.166110	0.626839	-0.345873	-0.183160	0.685727	-0.347656	-0.291757	0.271072	-0.318807	-0.312972	0.233317	-0.324638	-0.257783	0.208135	-0.330841	-0.240347	0.244635	-0.331231	-0.423312	0.072595	-0.380054	-0.282934	0.027639	-0.299776	-0.241086	0.032255	-0.379603	-0.215692	0.025623	-0.364643	-0.247278	0.683727	-0.691186	-0.225352	0.625971	-0.695309	-0.163649	0.643104	-0.686910	-0.176620	0.701776	-0.681891	-0.319847	0.248242	-0.698619	-0.342193	0.215314	-0.692388	-0.286332	0.186506	-0.691164	-0.270418	0.226723	-0.698749	-0.430996	0.068936	-0.640107	-0.289206	0.025074	-0.727709	-0.244843	0.030321	-0.655192	-0.220561	0.022330	-0.670911	
260	1.3000	-0.000000	0.000000	-0.000000	-0.252375	1.282504	-0.677586	-0.250058	1.286762	-0.339278	-0.196362	1.264893	-0.511478	-0.174384	0.874998	-0.421504	-0.175119	0.889216	-0.621983	-0.224666	0.912926	-0.373771	-0.229755	0.929482	-0.644395	-0.324864	0.908721	-0.446691	-0.318665	0.920307	-0.560120	-0.327782	0.915884	-0.506639	-0.249557	0.662047	-0.340422	-0.226820	0.606795	-0.339693	-0.166197	0.629970	-0.346043	-0.182775	0.688985	-0.347812	-0.292779	0.272911	-0.318846	-0.313806	0.235154	-0.324392	-0.258344	0.210502	-0.330742	-0.241292	0.247155	-0.331069	-0.422911	0.074264	-0.379656	-0.282782	0.027658	-0.299790	-0.240977	0.032251	-0.379485	-0.215710	0.025627	-0.364652	-0.247256	0.687609	-0.691263	-0.225705	0.629737	-0.695415	-0.163899	0.646436	-0.686862	-0.176494	0.705182	-0.681837	-0.320688	0.250647	-0.699217	-0.342792	0.217551	-0.693023	-0.286733	0.189117	-0.691810	-0.271105	0.229466	-0.699342	-0.430519	0.071029	-0.641048	-0.289016	0.025054	-0.727835	-0.244833	0.030427	-0.655439	-0.220620	0.022358	-0.670952	
